<svg width="45" height="42" viewBox="0 0 45 42" fill="none" xmlns="http://www.w3.org/2000/svg">
<path d="M22.4929 11.5925L21.4847 12.5634C21.6153 12.6989 21.7719 12.8067 21.9452 12.8803C22.1184 12.9539 22.3047 12.9919 22.4929 12.9919C22.6811 12.9919 22.8674 12.9539 23.0407 12.8803C23.2139 12.8067 23.3705 12.6989 23.5011 12.5634L22.4929 11.5925ZM13.1595 31.9807C12.8723 31.7445 12.5031 31.6321 12.133 31.6681C11.7629 31.7042 11.4223 31.8858 11.1861 32.173C10.9499 32.4602 10.8374 32.8295 10.8735 33.1996C10.9096 33.5697 11.0912 33.9103 11.3784 34.1465L13.1595 31.9807ZM4.46094 26.3627C4.54921 26.5241 4.66838 26.6664 4.81167 26.7817C4.95496 26.897 5.11955 26.9829 5.29604 27.0346C5.47253 27.0862 5.65747 27.1026 5.8403 27.0828C6.02313 27.063 6.20027 27.0074 6.3616 26.9191C6.52293 26.8308 6.6653 26.7117 6.78057 26.5684C6.89584 26.4251 6.98176 26.2605 7.03343 26.084C7.08509 25.9075 7.10149 25.7226 7.08168 25.5397C7.06187 25.3569 7.00625 25.1798 6.91798 25.0185L4.46094 26.3627ZM5.2227 18.383C5.2227 14.3688 7.49116 11.0006 10.5886 9.58354C13.5983 8.20752 17.6423 8.5716 21.4847 12.5634L23.5011 10.6235C18.9455 5.88678 13.6506 5.10449 9.42356 7.03688C5.28991 8.92821 2.42212 13.3195 2.42212 18.383H5.2227ZM15.9526 37.7312C16.9104 38.4855 17.9373 39.2883 18.9773 39.897C20.0172 40.5056 21.2047 40.9985 22.4929 40.9985V38.198C21.9141 38.198 21.2345 37.9739 20.3906 37.4792C19.5448 36.9862 18.6692 36.3066 17.6871 35.5318L15.9526 37.7312ZM29.0332 37.7312C31.6956 35.6308 35.1011 33.226 37.771 30.2182C40.4913 27.1562 42.5637 23.3605 42.5637 18.383H39.7631C39.7631 22.4867 38.0828 25.6476 35.678 28.3586C33.2229 31.1218 30.1292 33.3007 27.2987 35.5318L29.0332 37.7312ZM42.5637 18.383C42.5637 13.3195 39.6978 8.92821 35.5623 7.03688C31.3353 5.10449 26.0441 5.88678 21.4847 10.6216L23.5011 12.5634C27.3435 8.57347 31.3876 8.20752 34.3972 9.58354C37.4947 11.0006 39.7631 14.3669 39.7631 18.383H42.5637ZM27.2987 35.5318C26.3166 36.3066 25.441 36.9862 24.5952 37.4792C23.7494 37.9721 23.0717 38.198 22.4929 38.198V40.9985C23.7812 40.9985 24.9686 40.5038 26.0086 39.897C27.0504 39.2883 28.0754 38.4855 29.0332 37.7312L27.2987 35.5318ZM17.6871 35.5318C16.201 34.3612 14.6905 33.2409 13.1595 31.9807L11.3784 34.1465C12.928 35.4217 14.5673 36.639 15.9526 37.7312L17.6871 35.5318ZM6.91798 25.0203C5.79312 22.9898 5.20933 20.7042 5.2227 18.383H2.42212C2.42212 21.4412 3.20628 24.0681 4.46094 26.3627L6.91798 25.0203Z" fill="#F7BA26"/>
</svg>
