<svg width="65" height="65" viewBox="0 0 65 65" fill="none" xmlns="http://www.w3.org/2000/svg">
<g opacity="0.2">
<path d="M5.35645 25.4438C5.3565 22.4634 6.26062 19.5531 7.94939 17.0973C9.63816 14.6416 12.0321 12.7558 14.8151 11.6892C17.5981 10.6225 20.6392 10.4251 23.5367 11.1231C26.4343 11.821 29.0519 13.3815 31.044 15.5984C31.1843 15.7484 31.3539 15.868 31.5423 15.9498C31.7308 16.0316 31.934 16.0737 32.1394 16.0737C32.3448 16.0737 32.548 16.0316 32.7364 15.9498C32.9249 15.868 33.0945 15.7484 33.2348 15.5984C35.2206 13.3671 37.8389 11.7935 40.7411 11.0871C43.6433 10.3806 46.6919 10.5748 49.481 11.6438C52.2701 12.7129 54.6676 14.606 56.3542 17.0712C58.0408 19.5364 58.9366 22.4569 58.9223 25.4438C58.9223 31.5771 54.9049 36.157 50.8875 40.1744L36.1783 54.4042C35.6792 54.9774 35.0639 55.4378 34.3732 55.7549C33.6825 56.072 32.9323 56.2384 32.1723 56.2432C31.4123 56.2481 30.66 56.0911 29.9654 55.7828C29.2707 55.4745 28.6496 55.0219 28.1434 54.4551L13.3913 40.1744C9.37389 36.157 5.35645 31.6039 5.35645 25.4438Z" stroke="#E07A5F" stroke-width="5.35659" stroke-linecap="round" stroke-linejoin="round"/>
</g>
</svg>
