<svg width="24" height="24" viewBox="0 0 24 24" fill="none" xmlns="http://www.w3.org/2000/svg">
<path d="M1.95459 9.28413C1.95461 8.19666 2.2845 7.13478 2.90068 6.23874C3.51687 5.34269 4.39036 4.65464 5.4058 4.26544C6.42123 3.87625 7.53084 3.80423 8.58806 4.0589C9.64529 4.31357 10.6004 4.88294 11.3272 5.69181C11.3784 5.74655 11.4403 5.79019 11.5091 5.82003C11.5778 5.84986 11.652 5.86526 11.7269 5.86526C11.8019 5.86526 11.876 5.84986 11.9448 5.82003C12.0135 5.79019 12.0754 5.74655 12.1266 5.69181C12.8512 4.87768 13.8065 4.30352 14.8654 4.04576C15.9244 3.788 17.0367 3.85886 18.0544 4.24891C19.0721 4.63896 19.9468 5.3297 20.5622 6.2292C21.1776 7.12869 21.5045 8.19428 21.4993 9.28413C21.4993 11.522 20.0334 13.1931 18.5676 14.6589L13.2006 19.851C13.0185 20.0601 12.794 20.2281 12.542 20.3438C12.29 20.4595 12.0162 20.5202 11.7389 20.522C11.4616 20.5237 11.1871 20.4665 10.9337 20.354C10.6802 20.2415 10.4536 20.0763 10.2689 19.8695L4.88629 14.6589C3.42044 13.1931 1.95459 11.5318 1.95459 9.28413Z" fill="#F7BA26" stroke="#F7BA26" stroke-width="1.95447" stroke-linecap="round" stroke-linejoin="round"/>
</svg>
