<svg width="65" height="65" viewBox="0 0 65 65" fill="none" xmlns="http://www.w3.org/2000/svg">
<g opacity="0.3">
<path d="M30.8671 6.14723C30.9845 5.9101 31.1658 5.71049 31.3906 5.57093C31.6154 5.43137 31.8747 5.35742 32.1393 5.35742C32.4039 5.35742 32.6632 5.43137 32.888 5.57093C33.1128 5.71049 33.2941 5.9101 33.4115 6.14723L39.5984 18.679C40.006 19.5038 40.6076 20.2174 41.3517 20.7585C42.0957 21.2997 42.96 21.6522 43.8703 21.7858L57.7063 23.8106C57.9685 23.8486 58.2148 23.9592 58.4174 24.1298C58.62 24.3005 58.7708 24.5245 58.8527 24.7764C58.9346 25.0283 58.9444 25.2981 58.881 25.5553C58.8176 25.8125 58.6834 26.0468 58.4937 26.2318L48.4876 35.9754C47.8277 36.6185 47.334 37.4123 47.049 38.2885C46.7639 39.1647 46.696 40.097 46.8512 41.0052L49.2135 54.7717C49.2597 55.0337 49.2314 55.3035 49.1318 55.5502C49.0321 55.7969 48.8651 56.0107 48.6498 56.1671C48.4345 56.3234 48.1796 56.4161 47.9141 56.4346C47.6487 56.4531 47.3834 56.3966 47.1485 56.2715L34.7801 49.7686C33.9652 49.3407 33.0585 49.1171 32.138 49.1171C31.2175 49.1171 30.3108 49.3407 29.4958 49.7686L17.1302 56.2715C16.8954 56.3958 16.6304 56.4517 16.3654 56.4329C16.1004 56.4141 15.846 56.3212 15.6311 56.165C15.4162 56.0087 15.2496 55.7953 15.15 55.549C15.0504 55.3027 15.022 55.0334 15.0679 54.7717L17.4275 41.0079C17.5833 40.0993 17.5158 39.1663 17.2307 38.2896C16.9456 37.4128 16.4515 36.6186 15.791 35.9754L5.78491 26.2344C5.59366 26.0497 5.45814 25.815 5.39378 25.557C5.32942 25.2991 5.3388 25.0282 5.42087 24.7753C5.50294 24.5224 5.65439 24.2976 5.85796 24.1266C6.06154 23.9556 6.30906 23.8451 6.57233 23.8079L20.4057 21.7858C21.317 21.6532 22.1825 21.3012 22.9276 20.76C23.6726 20.2188 24.2751 19.5046 24.683 18.679L30.8671 6.14723Z" fill="#FFD700" stroke="#FFD700" stroke-width="5.35659" stroke-linecap="round" stroke-linejoin="round"/>
</g>
</svg>
