<svg width="169" height="169" viewBox="0 0 169 169" fill="none" xmlns="http://www.w3.org/2000/svg">
<path d="M118.828 24.0957C114.065 24.0957 109.655 26.6406 106.267 31.1577C102.879 35.6745 100.674 42.1163 100.674 49.2922C100.674 56.4681 102.879 62.9086 106.267 67.4254C109.655 71.9428 114.065 74.4877 118.828 74.4877C123.591 74.4877 128.001 71.9428 131.389 67.4257C134.777 62.9089 136.982 56.4681 136.982 49.2922C136.982 42.1163 134.777 35.6748 131.389 31.1577C128.001 26.6406 123.591 24.0957 118.828 24.0957ZM39.6093 55.7832C36.3046 55.7832 33.2151 57.5392 30.783 60.7822C28.351 64.0246 26.7363 68.7058 26.7363 73.9375C26.7363 79.1692 28.351 83.8504 30.783 87.0928C33.2151 90.3358 36.3046 92.0918 39.6093 92.0918C42.9141 92.0918 46.0043 90.3358 48.4363 87.0928C50.8683 83.8504 52.4817 79.1689 52.4817 73.9375C52.4817 68.7058 50.8683 64.0246 48.4363 60.7822C46.0043 57.5392 42.9141 55.7832 39.6093 55.7832ZM101.93 71.5193C101.391 71.9358 100.87 72.3733 100.366 72.8311C95.8388 76.965 92.505 83.0807 89.9588 90.7207C85.1429 105.167 83.2239 124.82 80.0356 144.904H157.62C154.432 124.82 152.512 105.166 147.697 90.7207C145.151 83.0807 141.818 76.965 137.29 72.8311C136.787 72.3731 136.265 71.9355 135.727 71.5193C131.489 76.8973 125.513 80.4295 118.828 80.4295C112.143 80.4295 106.168 76.8976 101.93 71.5193H101.93ZM26.8254 91.6488C26.6363 91.8089 26.4481 91.9716 26.2636 92.14C23.0014 95.1186 20.5483 99.5846 18.6619 105.244C15.1631 115.741 13.6959 130.113 11.3794 144.904H67.8386C65.5224 130.113 64.0552 115.741 60.5564 105.244C58.6703 99.5846 56.2175 95.1186 52.9554 92.14C52.7713 91.9727 52.584 91.8089 52.3936 91.6488C49.1331 95.4992 44.6338 98.0332 39.6093 98.0332C34.5849 98.0332 30.0859 95.4989 26.8254 91.6488Z" fill="#1A3D3A"/>
</svg>
