<svg width="21" height="21" viewBox="0 0 21 21" fill="none" xmlns="http://www.w3.org/2000/svg">
<g clip-path="url(#clip0_253_3719)">
<path d="M20.0583 10.2222C20.0583 9.39992 19.9899 8.79993 19.8422 8.17773H10.2344V11.8888H15.874C15.7603 12.811 15.1463 14.1999 13.7819 15.1332L13.7627 15.2574L16.8005 17.5571L17.0111 17.5776C18.944 15.8332 20.0583 13.2665 20.0583 10.2222Z" fill="#4285F4"/>
<path d="M10.2345 19.9992C12.9973 19.9992 15.3169 19.1102 17.011 17.577L13.7819 15.1325C12.9177 15.7215 11.758 16.1326 10.2345 16.1326C7.52834 16.1326 5.23158 14.3882 4.41285 11.9771L4.29284 11.9871L1.13407 14.376L1.09277 14.4881C2.77554 17.7547 6.23209 19.9992 10.2345 19.9992Z" fill="#34A853"/>
<path d="M4.41257 11.9771C4.19654 11.355 4.07151 10.6882 4.07151 9.99942C4.07151 9.31051 4.19654 8.64387 4.4012 8.02167L4.39548 7.88916L1.19713 5.46191L1.09249 5.51056C0.398937 6.86611 0.000976562 8.38834 0.000976562 9.99942C0.000976562 11.6105 0.398937 13.1327 1.09249 14.4882L4.41257 11.9771Z" fill="#FBBC05"/>
<path d="M10.2345 3.86658C12.1559 3.86658 13.4522 4.67768 14.1912 5.3555L17.0793 2.59996C15.3055 0.988878 12.9973 0 10.2345 0C6.23208 0 2.77554 2.2444 1.09277 5.51099L4.40148 8.0221C5.23158 5.61102 7.52833 3.86658 10.2345 3.86658Z" fill="#EB4335"/>
</g>
<defs>
<clipPath id="clip0_253_3719">
<rect width="20.0686" height="20.0686" fill="white"/>
</clipPath>
</defs>
</svg>
