<svg width="169" height="169" viewBox="0 0 169 169" fill="none" xmlns="http://www.w3.org/2000/svg">
<path fill-rule="evenodd" clip-rule="evenodd" d="M93.1612 50.2991C88.8236 47.2359 83.9789 46.9965 79.8314 48.2288C77.7174 48.8638 75.7251 49.8492 73.9375 51.1441C72.1499 49.8492 70.1576 48.8638 68.0436 48.2288C63.8961 47.0106 59.0514 47.243 54.7208 50.2991C52.5705 51.8495 50.8047 53.8728 49.5595 56.2131C48.3143 58.5534 47.6228 61.1483 47.5383 63.7979C47.2777 71.8747 51.6084 78.4798 56.2347 83.5216C59.6992 87.296 63.9313 90.7886 67.424 93.6828C68.5459 94.6029 69.5693 95.4596 70.4941 96.253L73.9093 99.1823L77.3457 96.2811C78.1907 95.5676 79.1155 94.8024 80.1201 93.9855C83.6972 91.0492 88.0772 87.4509 91.6684 83.5287C96.2948 78.4728 100.611 71.8536 100.33 63.7979C100.247 61.1495 99.5575 58.5554 98.3147 56.2151C97.072 53.8749 95.3089 51.851 93.1612 50.2991ZM82.8241 58.3547C80.9393 58.983 79.2699 60.1301 78.0076 61.6643L73.9375 66.5935L69.8674 61.6643C68.6042 60.1327 66.9349 58.9881 65.0509 58.3618C63.4313 57.8829 62.0512 58.059 60.8048 58.9321C59.9904 59.5423 59.3243 60.3284 58.8561 61.2319C58.3879 62.1353 58.1297 63.1328 58.1008 64.15C57.974 68.0933 60.0584 72.0648 64.0158 76.3743C66.9451 79.5642 70.3251 82.3598 73.684 85.1483L73.9586 85.3666C77.402 82.5428 80.8947 79.6628 83.8803 76.3955C87.8377 72.0648 89.908 68.0793 89.7742 64.1641C89.7474 63.1445 89.4902 62.1442 89.0219 61.2382C88.5536 60.3321 87.8864 59.5437 87.0702 58.9321L87.0561 58.9251C85.8168 58.0449 84.4366 57.8759 82.8241 58.3547Z" fill="#1A3D3A"/>
<path d="M110.906 95.0625C112.307 95.0625 113.65 94.5061 114.641 93.5157C115.631 92.5252 116.188 91.1819 116.188 89.7812C116.188 88.3806 115.631 87.0373 114.641 86.0468C113.65 85.0564 112.307 84.5 110.906 84.5C109.506 84.5 108.162 85.0564 107.172 86.0468C106.181 87.0373 105.625 88.3806 105.625 89.7812C105.625 91.1819 106.181 92.5252 107.172 93.5157C108.162 94.5061 109.506 95.0625 110.906 95.0625Z" fill="#1A3D3A"/>
<path fill-rule="evenodd" clip-rule="evenodd" d="M108.822 27.7161C116.916 30.9617 124.065 36.1866 129.616 42.912L129.764 43.0951L129.905 43.2923C135.029 50.4493 137.894 58.9767 138.129 67.7762V67.7902C138.186 70.114 138.165 72.0645 138.143 73.7757C138.087 78.2894 138.052 81.0919 139.545 84.648L140.016 85.1409C140.904 86.0563 142.094 87.3872 143.27 88.9716C144.425 90.5278 145.699 92.5206 146.615 94.7739C147.509 96.992 148.255 99.9636 147.664 103.217C147.016 106.752 144.988 109.287 143.037 110.949C141.275 112.401 139.296 113.567 137.172 114.406C136.683 114.608 136.207 114.789 135.742 114.948C134.756 121.786 131.869 127.166 127.363 130.996C121.976 135.573 115.23 137.122 109.442 137.503C104.508 137.758 99.5617 137.415 94.7104 136.482L94.2457 137.291C93.4007 138.672 92.098 140.348 90.1474 141.96C86.183 145.242 80.1412 147.777 71.2969 147.826C66.2762 148.157 60.3752 146.748 55.4109 144.558C50.524 142.404 44.7991 138.714 42.088 133.179L41.3627 131.714V113.322C30.251 104.217 21.125 91.5629 21.125 74.9235C21.125 60.5373 27.1315 46.8202 37.7011 36.7576C48.2495 26.7162 62.4948 21.1251 77.2752 21.1251C88.1345 21.1068 98.8784 23.3515 108.822 27.7161ZM91.091 121.138L91.1262 121.152L91.3797 121.229C91.6191 121.305 91.9829 121.408 92.4712 121.539C93.4359 121.807 94.8442 122.159 96.5342 122.49C99.9846 123.166 104.35 123.722 108.533 123.448C112.793 123.166 116.089 122.096 118.237 120.265C120.124 118.666 122.039 115.709 122.039 109.435V103.379L127.989 102.477H128.017L128.222 102.435L129.102 102.245C129.884 102.055 130.876 101.766 131.841 101.372C132.681 101.02 133.296 100.696 133.686 100.4L133.559 100.062C133.127 99.1038 132.588 98.1968 131.954 97.3582C131.101 96.2308 130.164 95.1692 129.151 94.1824L129.039 94.0768L128.982 94.0204L128.961 93.9993L127.94 93.0839L127.341 91.8375C123.792 84.479 123.919 77.5922 124.032 71.9448C124.053 70.5999 124.081 69.3183 124.053 68.1212C123.893 62.2128 121.986 56.4842 118.575 51.6578C114.521 46.8221 109.328 43.0712 103.463 40.7432L103.351 40.6939L103.238 40.6446C95.0619 37.0435 86.2232 35.1918 77.2893 35.2084C66.0227 35.2084 55.2771 39.4757 47.4045 46.968C39.5601 54.4322 35.2083 64.5018 35.2083 74.9235C35.2083 86.7253 42.1092 96.4005 52.6224 104.252L55.4461 106.364V127.968C56.4319 129.039 58.2698 130.433 61.1005 131.679C64.7552 133.292 68.4098 133.933 70.48 133.771L70.7547 133.742H71.0363C77.226 133.742 80.0356 132.052 81.1693 131.116C81.4119 130.909 81.6401 130.685 81.8523 130.447V118.11L91.0769 121.138H91.091Z" fill="#1A3D3A"/>
</svg>
