<svg width="169" height="169" viewBox="0 0 169 169" fill="none" xmlns="http://www.w3.org/2000/svg">
<path d="M67.0227 154.916C63.5723 143.666 58.3673 135.278 51.4078 129.753C40.9685 121.468 24.3819 126.619 18.2556 118.071C12.1294 109.522 22.5475 93.8052 26.2022 84.5314C29.8568 75.2575 12.1892 71.9796 14.2524 69.346C15.6256 67.5903 24.5556 62.525 41.0425 54.1501C45.7252 27.4387 63.0254 14.083 92.9431 14.083C137.82 14.083 154.917 52.1291 154.917 76.3313C154.917 100.527 134.214 126.595 104.724 132.218C102.088 136.058 105.89 143.624 116.131 154.916" stroke="#1A3D3A" stroke-width="2.3335" stroke-linecap="round" stroke-linejoin="round"/>
<path fill-rule="evenodd" clip-rule="evenodd" d="M68.6563 51.0519C66.3537 59.9737 67.0379 66.2396 70.709 69.8496C74.3777 73.4573 80.6307 75.8163 89.468 76.9265C87.4611 88.4349 89.9057 93.8336 96.8018 93.1223C103.696 92.4135 107.838 89.5499 109.23 84.5315C120.004 87.5594 125.844 85.0244 126.75 76.9265C128.106 64.7796 121.557 55.0938 118.87 55.0938C116.184 55.0938 109.23 54.7664 109.23 51.0519C109.23 47.3374 101.104 45.2425 93.7704 45.2425C86.4365 45.2425 90.8481 40.2958 80.7785 42.2498C74.0655 43.5525 70.0247 46.4866 68.6563 51.0519Z" fill="#1A3D3A" stroke="#1A3D3A" stroke-width="2" stroke-linejoin="round"/>
<path d="M107.386 89.7812C103.805 92.0029 98.8933 95.6963 96.8231 98.5833C91.651 105.801 87.4577 110.195 86.5422 114.807" stroke="#1A3D3A" stroke-width="2" stroke-linecap="round"/>
</svg>
