<svg width="49" height="49" viewBox="0 0 49 49" fill="none" xmlns="http://www.w3.org/2000/svg">
<path d="M40.493 20.246C40.493 30.3551 29.2785 40.8833 25.5127 44.1349C25.1618 44.3987 24.7348 44.5413 24.2958 44.5413C23.8569 44.5413 23.4298 44.3987 23.079 44.1349C19.3132 40.8833 8.09863 30.3551 8.09863 20.246C8.09863 15.9503 9.80512 11.8304 12.8427 8.79288C15.8803 5.75531 20.0001 4.04883 24.2958 4.04883C28.5916 4.04883 32.7114 5.75531 35.749 8.79288C38.7866 11.8304 40.493 15.9503 40.493 20.246Z" stroke="#E07A5F" stroke-width="4.0493" stroke-linecap="round" stroke-linejoin="round"/>
<path d="M24.2956 26.3208C27.6502 26.3208 30.3696 23.6014 30.3696 20.2468C30.3696 16.8923 27.6502 14.1729 24.2956 14.1729C20.9411 14.1729 18.2217 16.8923 18.2217 20.2468C18.2217 23.6014 20.9411 26.3208 24.2956 26.3208Z" stroke="#E07A5F" stroke-width="4.0493" stroke-linecap="round" stroke-linejoin="round"/>
</svg>
