<svg width="24" height="24" viewBox="0 0 24 24" fill="none" xmlns="http://www.w3.org/2000/svg">
<path d="M19.5449 9.77197C19.5449 14.6513 14.132 19.7329 12.3144 21.3023C12.145 21.4297 11.9389 21.4985 11.727 21.4985C11.5152 21.4985 11.3091 21.4297 11.1397 21.3023C9.32208 19.7329 3.90918 14.6513 3.90918 9.77197C3.90918 7.69854 4.73285 5.71004 6.19898 4.2439C7.66512 2.77777 9.65362 1.9541 11.727 1.9541C13.8005 1.9541 15.789 2.77777 17.2551 4.2439C18.7213 5.71004 19.5449 7.69854 19.5449 9.77197Z" stroke="#FCF8EC" stroke-width="1.95447" stroke-linecap="round" stroke-linejoin="round"/>
<path d="M11.7271 12.7042C13.3462 12.7042 14.6588 11.3917 14.6588 9.77252C14.6588 8.15339 13.3462 6.84082 11.7271 6.84082C10.108 6.84082 8.79541 8.15339 8.79541 9.77252C8.79541 11.3917 10.108 12.7042 11.7271 12.7042Z" stroke="#FCF8EC" stroke-width="1.95447" stroke-linecap="round" stroke-linejoin="round"/>
</svg>
