<svg width="169" height="169" viewBox="0 0 169 169" fill="none" xmlns="http://www.w3.org/2000/svg">
<path d="M152.875 61.3325C161.677 52.5304 157.663 42.2496 152.875 37.25L131.75 16.125C122.877 7.3229 112.667 11.3367 107.667 16.125L95.6963 28.1662H77.4584C64.0792 28.1662 56.3334 35.2079 52.3901 43.3058L21.1251 74.5708V102.737L16.1255 107.667C7.32339 116.539 11.3371 126.75 16.1255 131.749L37.2505 152.874C41.053 156.677 45.1371 158.085 49.0101 158.085C54.0096 158.085 58.5867 155.62 61.333 152.874L80.3455 133.791H105.625C117.596 133.791 123.652 126.327 125.835 119.004C133.792 116.891 138.158 110.835 139.918 104.92C150.833 102.104 154.917 91.7525 154.917 84.4996V63.3746H150.762L152.875 61.3325ZM140.833 84.4996C140.833 87.6683 139.495 91.5412 133.792 91.5412H126.75V98.5829C126.75 101.752 125.412 105.625 119.708 105.625H112.667V112.666C112.667 115.835 111.329 119.708 105.625 119.708H74.5713L51.4746 142.805C49.2917 144.847 48.0242 143.65 47.2496 142.875L26.1951 121.891C24.153 119.708 25.3501 118.44 26.1246 117.666L35.2084 108.512V80.345L49.2917 66.2617V77.4579C49.2917 85.9783 54.9251 98.5829 70.4167 98.5829C85.9084 98.5829 91.5417 85.9783 91.5417 77.4579H140.833V84.4996ZM142.875 51.3333L130.905 63.3746H77.4584V77.4579C77.4584 80.6267 76.1205 84.4996 70.4167 84.4996C64.713 84.4996 63.3751 80.6267 63.3751 77.4579V56.3329C63.3751 53.0937 64.5721 42.2496 77.4584 42.2496H101.47L117.525 26.1946C119.708 24.1525 120.976 25.3496 121.75 26.1242L142.805 47.1083C144.847 49.2912 143.65 50.5587 142.875 51.3333Z" fill="#1A3D3A"/>
</svg>
