<svg width="24" height="24" viewBox="0 0 24 24" fill="none" xmlns="http://www.w3.org/2000/svg">
<path d="M13.5172 16.1914C13.719 16.2841 13.9464 16.3053 14.1619 16.2515C14.3774 16.1976 14.5681 16.072 14.7026 15.8953L15.0495 15.4409C15.2316 15.1982 15.4676 15.0011 15.739 14.8655C16.0104 14.7298 16.3097 14.6591 16.6131 14.6591H19.5448C20.0632 14.6591 20.5603 14.865 20.9268 15.2316C21.2933 15.5981 21.4993 16.0952 21.4993 16.6136V19.5453C21.4993 20.0636 21.2933 20.5608 20.9268 20.9273C20.5603 21.2938 20.0632 21.4998 19.5448 21.4998C14.8796 21.4998 10.4054 19.6465 7.10664 16.3477C3.80784 13.0489 1.95459 8.57476 1.95459 3.90955C1.95459 3.39119 2.16051 2.89406 2.52704 2.52753C2.89357 2.16099 3.3907 1.95508 3.90906 1.95508H6.84076C7.35912 1.95508 7.85624 2.16099 8.22278 2.52753C8.58931 2.89406 8.79523 3.39119 8.79523 3.90955V6.84125C8.79523 7.14467 8.72458 7.44392 8.58889 7.71531C8.45319 7.9867 8.25618 8.22277 8.01344 8.40482L7.55609 8.74783C7.37669 8.88482 7.25024 9.07968 7.19822 9.29933C7.1462 9.51898 7.17183 9.74986 7.27074 9.95276C8.60631 12.6654 10.8029 14.8593 13.5172 16.1914Z" stroke="#FCF8EC" stroke-width="1.95447" stroke-linecap="round" stroke-linejoin="round"/>
</svg>
