<svg width="694" height="568" viewBox="0 0 694 568" fill="none" xmlns="http://www.w3.org/2000/svg">
<path d="M414.35 0.925781L419.225 2.75391C420.263 3.13853 421.255 3.31821 422.17 3.36328L424.608 3.46484L427.045 3.61719C428.994 3.71111 430.954 3.94708 432.885 4.32812L435.323 4.78516L437.76 5.29297C438.618 5.46066 439.455 5.48269 440.299 5.34375L445.174 4.53125C447.688 4.11503 450.219 4.22201 452.69 4.83594L457.565 6.05469C458.212 6.21392 458.813 6.19522 459.444 6.05469L461.881 5.49609L464.319 4.98828C465.515 4.72093 466.757 4.3196 468.026 3.76953L472.901 1.63672C475.552 0.486051 478.408 0.0276123 481.331 0.46875L483.768 0.875L486.206 1.23047C488.183 1.53067 490.157 1.97819 492.096 2.60156L494.534 3.41406L496.971 4.17578C496.994 4.16984 497.086 4.16546 497.174 4.125L502.049 1.89062C504.589 0.726766 507.331 0.17613 510.174 0.417969L515.049 0.824219C517.473 1.03137 519.824 1.69267 522.057 2.70312L524.495 3.76953L526.932 4.88672C527.465 5.1266 527.766 5.13051 527.999 5.08984L530.436 4.68359L532.874 4.22656C535.109 3.83672 537.377 3.7628 539.627 4.02344L542.065 4.32812L544.502 4.58203C545.675 4.71703 546.837 4.73815 548.006 4.63281L552.881 4.22656C554.107 4.11486 555.376 3.86529 556.639 3.51562L559.077 2.85547L561.514 2.14453C564.521 1.31512 567.578 1.49864 570.452 2.60156L572.889 3.56641L575.327 4.48047C576.546 4.94859 577.738 5.26812 578.881 5.44531L581.319 5.85156L583.756 6.20703C584.504 6.32056 585.25 6.29782 586.042 6.10547L590.917 4.88672C593.143 4.3384 595.441 4.10662 597.721 4.22656L600.159 4.37891L602.596 4.48047C603.506 4.52695 604.461 4.44111 605.44 4.17578L610.315 2.85547C613.405 2.02402 616.518 2.29441 619.405 3.51562L621.842 4.53125L624.178 5.59766L626.514 4.58203L628.952 3.51562C631.877 2.28168 635.028 2.06838 638.143 2.95703L640.581 3.61719L643.018 4.32812C643.262 4.39767 643.472 4.41245 643.831 4.27734L648.706 2.44922C650.764 1.67318 652.86 1.10623 655.002 0.824219L659.877 0.214844C662.602 -0.142063 665.3 0.187446 667.85 1.12891L672.725 2.95703C673.703 3.3195 674.625 3.44711 675.467 3.46484L680.342 3.56641C684.181 3.63738 687.521 5.53398 689.483 8.94922L690.702 10.9805L691.87 13.0625C693.622 16.1123 693.859 19.5055 692.885 22.7109L692.174 25.1484L691.413 27.5859C690.956 29.0911 690.56 30.6055 690.194 32.1055L688.975 36.9805C688.93 37.173 688.907 37.3881 689.077 37.793L690.092 40.2305L691.159 42.668L691.92 45.2578C692.399 47.8464 691.993 50.4882 690.803 52.9258L689.635 55.3633L688.518 57.5469L689.483 59.6797L690.499 62.1172C691.829 65.2519 691.914 68.6504 690.702 71.8672L688.874 76.7422C688.585 77.515 688.519 78.177 688.569 78.7734L688.975 83.6484C689.12 85.3995 689.19 87.1774 689.229 88.9297L689.331 93.8047C689.369 95.5234 689.373 97.2657 689.331 98.9844L689.229 103.859C689.222 104.317 689.303 104.908 689.686 105.688L690.905 108.125L692.073 110.562C693.727 113.924 693.811 117.594 692.225 121.023L689.991 125.898C689.533 126.887 689.288 127.763 689.229 128.539L689.077 130.977L688.874 133.414C688.798 134.414 688.858 135.427 689.077 136.461L690.092 141.336C690.61 143.791 690.653 146.283 690.194 148.75L689.28 153.625C689.109 154.55 689.101 155.457 689.229 156.367L689.94 161.242C690.244 163.381 690.256 165.545 690.042 167.691L689.838 170.129L689.584 172.566C689.542 172.989 689.589 173.501 689.889 174.191L692.022 179.066C693.62 182.729 693.233 186.548 691.311 189.832L689.889 192.27L688.417 194.707C688.106 195.237 688.106 195.497 688.112 195.57L688.417 198.008L688.67 200.445C688.888 202.427 688.935 204.451 688.823 206.438L688.67 208.875L688.569 211.312C688.502 212.509 688.555 213.712 688.721 214.918L689.026 217.355L689.381 219.793C689.571 221.168 689.839 222.566 690.194 223.957L691.413 228.832C692.069 231.41 692.165 234.046 691.616 236.652L691.108 239.09L690.549 241.527L689.026 248.84L688.467 251.277C688.178 252.617 688.011 253.967 687.909 255.289L687.502 260.164C687.389 261.634 687.36 263.113 687.35 264.582L687.299 267.02V269.457C687.288 271.205 687.207 272.991 687.096 274.738L686.944 277.176L686.792 279.562L687.198 280.223L690.752 285.098C691.851 286.6 692.722 288.446 692.987 290.582C693.253 292.755 692.848 294.811 691.971 296.625L690.803 299.062L689.584 301.5C689.032 302.64 688.696 303.71 688.518 304.699L688.112 307.137L687.655 309.574C687.419 310.884 687.29 312.189 687.249 313.484L687.147 315.922L687.096 318.359C687.086 318.671 687.141 319.181 687.553 319.934L688.874 322.371L690.245 324.809C691.67 327.417 692.376 330.351 692.073 333.441L691.87 335.879L691.616 338.316C691.46 339.908 691.293 341.498 691.159 343.09L690.752 347.965C690.663 349.019 690.713 350.089 690.905 351.164L691.362 353.602L691.768 356.039C692.295 359 691.909 361.918 690.752 364.621L689.686 367.059L688.67 369.395L689.686 371.73L690.702 374.168C691.778 376.722 692.277 379.44 691.971 382.242L691.667 384.68L691.413 387.117C691.154 389.455 690.495 391.743 689.534 393.922L688.467 396.359L687.706 398.035L688.975 400.016L690.499 402.453C691.531 404.096 692.252 406.078 692.276 408.293C692.299 410.513 691.615 412.513 690.6 414.184L689.127 416.621L687.807 418.703L688.569 420.633L689.483 423.07C690.216 424.945 690.838 426.85 691.311 428.758L692.53 433.633C693.392 437.135 692.675 440.504 690.956 443.383L689.483 445.82L688.315 447.699L689.127 449.477L690.295 451.914C691.45 454.388 692.045 457.062 691.92 459.836L691.819 462.273L691.667 464.711C691.599 466.18 691.582 467.661 691.616 469.129L691.717 471.566L691.768 474.004C691.805 475.605 691.818 477.227 691.87 478.828L691.971 481.266L692.022 483.703C692.075 485.323 692.168 486.959 692.225 488.578L692.276 491.016L692.377 493.453C692.464 495.928 692.077 498.375 691.26 500.715L690.397 503.152L689.584 505.438L690.803 507.875L691.971 510.312C693.863 514.189 693.378 518.273 691.159 521.637L687.909 526.512C687.879 526.557 687.826 526.58 687.807 526.613L688.315 528.797L688.924 531.234C689.225 532.537 689.628 533.855 690.143 535.195L691.057 537.633L692.022 540.07C693.077 542.81 693.357 545.737 692.733 548.652L692.174 551.09L691.667 553.527C691.023 556.512 689.481 559.167 687.045 561.145L685.217 562.617L683.338 564.141C680.552 566.391 677.181 567.117 673.792 566.477L668.917 565.562C667.826 565.356 666.732 565.287 665.667 565.359L663.229 565.562L660.792 565.715C658.125 565.893 655.527 565.436 653.073 564.445L650.635 563.43L648.198 562.465C647.299 562.1 646.469 561.952 645.76 561.957H643.323L640.885 562.008C639.714 562.017 638.53 562.112 637.331 562.363L632.456 563.379C630.054 563.883 627.615 563.98 625.194 563.582L620.319 562.77C619.691 562.666 619.044 562.669 618.338 562.871L613.463 564.293C610.172 565.255 606.837 564.881 603.866 563.43L601.428 562.262L598.991 561.043C598.282 560.701 597.787 560.664 597.417 560.688L592.542 560.992C590.885 561.1 589.222 561.169 587.565 561.246L585.127 561.398L582.69 561.5C581.886 561.538 580.979 561.699 579.999 562.109L577.561 563.125L575.124 564.191C573.135 565.023 571.091 565.65 569.03 566.07L566.592 566.578L564.155 567.035C561.261 567.625 558.389 567.365 555.674 566.324L553.237 565.359L550.799 564.445C550.102 564.177 549.524 564.13 549.022 564.191L544.147 564.801C542.306 565.025 540.458 565.121 538.612 565.156L533.737 565.258C532.53 565.281 531.312 565.411 530.081 565.664L525.206 566.68C522.685 567.2 520.102 567.18 517.588 566.629L515.151 566.121L512.713 565.562C512.152 565.441 511.595 565.442 510.987 565.613L508.549 566.324L506.112 566.984C503.702 567.662 501.238 567.883 498.749 567.594L496.311 567.34L493.874 567.035C491.729 566.785 489.592 566.306 487.526 565.562L485.088 564.648L482.651 563.785C481.418 563.343 480.215 563.042 479.045 562.871L474.17 562.16C472.978 561.987 471.796 561.942 470.616 562.008L468.178 562.109L465.741 562.262C464.057 562.357 462.346 562.416 460.663 562.465L458.225 562.566L455.788 562.617C454.499 562.656 453.181 562.787 451.877 563.023L447.002 563.938C445.607 564.191 444.198 564.495 442.788 564.902L437.913 566.324C434.756 567.234 431.56 566.95 428.62 565.664L423.745 563.531L423.592 563.48H423.491L418.616 565.105C415.444 566.139 412.186 565.937 409.17 564.648L406.733 563.633L404.956 562.82L403.026 564.09L400.588 565.664C397.884 567.356 394.697 568.202 391.295 567.695L386.42 566.984C384.91 566.758 383.359 566.57 381.85 566.426L379.413 566.172L376.975 565.969C376.022 565.88 375.064 565.92 374.081 566.121L369.206 567.137C365.666 567.868 362.311 566.985 359.506 565.207L357.069 563.684L355.241 562.516L353.667 563.328L351.229 564.496C347.551 566.297 343.618 566.04 340.209 564.039L337.772 562.617L335.334 561.145C335.075 560.992 334.918 560.951 334.877 560.941L332.44 561.398L330.002 561.805C328.083 562.142 326.146 562.353 324.213 562.414L321.776 562.516L319.338 562.566C318.16 562.603 316.944 562.743 315.733 563.023L313.295 563.633L310.858 564.191C309.009 564.622 307.134 564.93 305.272 565.156L300.397 565.766C298.336 566.016 296.268 566.045 294.202 565.867L289.327 565.461C288.293 565.371 287.235 565.418 286.178 565.613L283.741 566.07L281.303 566.477C279.032 566.897 276.737 566.966 274.448 566.68L269.573 566.07C267.427 565.801 265.289 565.31 263.225 564.547L258.35 562.719C258.069 562.616 257.908 562.649 257.69 562.719L252.815 564.242C250.043 565.121 247.162 565.234 244.334 564.496L241.897 563.836L239.459 563.227C237.999 562.845 236.544 562.521 235.092 562.262L232.655 561.805L230.42 561.398C230.365 561.43 230.302 561.491 230.217 561.551L225.342 565.004C222.748 566.827 219.616 567.952 216.151 567.645L211.276 567.238C209.495 567.08 207.72 566.822 205.944 566.527L201.069 565.715C198.898 565.354 196.737 564.718 194.67 563.836L192.233 562.82L189.795 561.754C189.405 561.591 189.209 561.61 189.034 561.652L184.159 562.871C182.114 563.37 180.045 563.663 177.963 563.734L175.526 563.785L173.088 563.887C171.704 563.934 170.315 564.045 168.924 564.242L164.049 564.953C161.847 565.266 159.603 565.288 157.397 565.004L154.959 564.648L152.522 564.344C150.759 564.116 148.999 563.83 147.241 563.48L144.803 563.023L142.366 562.516C141.746 562.392 141.105 562.384 140.436 562.566L137.999 563.277L135.561 563.938C133.384 564.53 131.15 564.824 128.909 564.801L126.471 564.75H124.034C123.111 564.742 122.15 564.847 121.139 565.156L116.264 566.68C112.671 567.778 109.159 567.104 106.159 565.309L103.721 563.836L101.284 562.414C101.04 562.268 100.917 562.259 100.928 562.262L98.6431 562.77L96.2056 563.277C95.0439 563.521 93.8443 563.904 92.6001 564.445L90.1626 565.512L87.7251 566.527C85.2211 567.618 82.5184 568.152 79.7524 567.949L77.3149 567.797L74.8774 567.594C73.5443 567.497 72.1981 567.514 70.8657 567.594L68.4282 567.695L65.9907 567.848C62.5937 568.048 59.5515 566.906 57.0024 565.105L52.1274 561.652C51.7333 561.373 51.4255 561.252 51.2642 561.195C51.1212 561.146 51.0325 561.144 51.0103 561.145H48.5728L46.1353 561.195C44.8357 561.204 43.535 561.303 42.2251 561.5L37.3501 562.211C36.1329 562.395 34.8611 562.688 33.5923 563.125L31.1548 563.988L28.7173 564.801C26.4656 565.576 24.1288 566.004 21.7603 566.02L19.3228 566.07H16.8853C13.5394 566.087 10.5521 564.849 8.15088 562.719L6.17041 560.941L4.24072 559.215C1.4901 556.771 -0.0405678 553.348 0.381348 549.465L0.635254 547.027L0.939941 544.59C1.16815 542.497 1.58848 540.425 2.26025 538.395L3.88525 533.52C4.0331 533.074 4.03357 532.728 3.93604 532.352L3.32666 529.914L2.6665 527.477C2.16556 525.58 1.78956 523.657 1.54932 521.738L0.939941 516.863C0.587863 514.049 0.999156 511.27 2.05713 508.688L3.07275 506.25L4.0376 503.812C4.36742 503.003 4.51818 502.334 4.49463 501.73L4.34229 499.293L4.24072 496.855C4.19081 495.718 4.04897 494.536 3.73291 493.352L2.4126 488.477C1.9435 486.72 1.54207 484.958 1.19385 483.195L0.686035 480.758L0.229004 478.32C-0.507192 474.59 0.600949 471.173 2.56494 468.418L4.2915 465.98L6.06885 463.543C6.34556 463.156 6.47682 462.871 6.52588 462.73V462.527L6.4751 460.09V457.652C6.45233 456.558 6.26251 455.443 5.96729 454.301L5.35791 451.863L4.69775 449.426C4.28659 447.835 3.86494 446.244 3.42822 444.652L2.10791 439.777C1.1112 436.146 1.89382 432.654 3.73291 429.723L6.77979 424.848C7.25227 424.094 7.28975 423.686 7.2876 423.527L7.23682 421.09V418.652C7.21481 417.216 7.12654 415.775 6.98291 414.336L6.4751 409.461C6.32825 407.994 6.1175 406.514 5.86572 405.043L5.05322 400.168C4.88843 399.207 4.53517 398.143 3.98682 397.02L2.81885 394.582L1.6001 392.145C-0.322044 388.195 0.269729 384.058 2.56494 380.719L5.9165 375.844C6.40242 375.135 6.474 374.802 6.4751 374.727L6.42432 372.289V369.852C6.41899 368.94 6.251 367.972 5.9165 366.957L5.15479 364.52L4.34229 362.082C3.76258 360.323 3.21844 358.568 2.76807 356.801L1.54932 351.926C1.03202 349.894 0.687233 347.801 0.584473 345.73L0.381348 340.855C0.246475 338.08 0.803136 335.409 1.95557 332.934L3.12354 330.496L4.24072 328.059C4.84139 326.771 5.29787 325.514 5.61182 324.301L6.27197 321.863L6.88135 319.426C7.13935 318.428 7.23161 317.469 7.18604 316.531L7.08447 314.094L6.93213 311.656C6.88351 310.705 6.70398 309.671 6.32275 308.609L5.45947 306.172L4.54541 303.734C3.47676 300.746 3.4273 297.611 4.44385 294.594L5.30713 292.156L6.11963 289.719C6.36029 289.001 6.40208 288.375 6.32275 287.789L5.96729 285.352L5.6626 282.914C5.50329 281.742 5.22437 280.54 4.79932 279.309L3.07275 274.434C2.27395 272.124 1.90412 269.711 1.95557 267.273L2.05713 262.398C2.10718 260.102 2.49603 257.841 3.2251 255.645L4.8501 250.77C5.07935 250.082 5.13955 249.452 5.05322 248.891L4.69775 246.453L4.2915 244.016C3.94449 241.742 3.94016 239.433 4.2915 237.16L4.69775 234.723L5.05322 232.285C5.22801 231.144 5.28592 230.011 5.20557 228.883L5.05322 226.445L4.8501 224.008C4.75518 222.679 4.57089 221.341 4.2915 219.996L3.27588 215.121C2.70077 212.35 2.90949 209.564 3.78369 206.895L4.54541 204.457L5.35791 202.02C5.35111 201.995 5.34186 201.944 5.30713 201.867L3.07275 196.992C1.62969 193.814 1.53174 190.338 2.81885 187.039L3.73291 184.602L4.69775 182.164C4.82537 181.829 4.80608 181.661 4.74854 181.453L4.08838 179.016L3.37744 176.578C2.65094 174.001 2.5621 171.344 3.07275 168.707L3.98682 163.832C4.27916 162.331 4.54731 160.81 4.74854 159.312L5.05322 156.875L5.40869 154.438C5.42315 154.33 5.46354 154.05 5.15479 153.473L2.51416 148.598C0.76399 145.313 0.53552 141.608 2.05713 138.086L3.07275 135.648L4.13916 133.211C4.62724 132.079 4.95686 131.021 5.104 130.012L5.45947 127.574L5.76416 125.137C5.94277 123.902 6.01615 122.653 5.96729 121.43L5.76416 116.555C5.69138 114.727 5.71208 112.897 5.81494 111.07L6.11963 106.195C6.20743 104.641 6.28256 103.077 6.32275 101.523L6.42432 96.6484C6.44762 95.7444 6.31606 94.7967 6.01807 93.8047L5.30713 91.3672L4.54541 88.9297C3.65009 85.9528 3.76139 82.8991 4.79932 79.9922L6.52588 75.1172C6.71262 74.5949 6.76325 74.1852 6.67822 73.7969L6.11963 71.3594L5.61182 68.9219C5.06119 66.3983 5.0225 63.8315 5.56104 61.3047L6.06885 58.8672L6.62744 56.4297C6.8569 55.3452 6.92886 54.2805 6.88135 53.2305L6.67822 48.3555C6.64092 47.5417 6.42581 46.6495 6.01807 45.6641L3.98682 40.7891C2.91055 38.187 2.48601 35.4026 2.86963 32.5625L3.58057 27.6875C3.62592 27.3544 3.5907 26.9245 3.32666 26.3164L2.20947 23.8789L1.14307 21.4414C0.467448 19.9087 -0.0269663 17.9859 0.178223 15.9062C0.396278 13.7412 1.36623 11.8592 2.71729 10.3711L4.08838 8.84766C4.28309 7.66096 4.61165 6.61076 5.20557 5.85156C6.46639 4.24133 8.11046 3.74315 8.354 3.66797C9.12785 3.42149 9.81652 3.36986 9.92822 3.36328H11.4517C11.9023 3.36472 12.6412 3.52076 13.5337 3.82031L15.7173 4.125L18.1548 4.42969C19.0593 4.55433 19.9736 4.55773 20.897 4.37891L23.3345 3.92188L25.772 3.41406C27.1309 3.15009 28.5038 2.79 29.8853 2.34766L34.7603 0.824219L37.604 0.265625C39.4796 0.151806 41.2785 0.517096 42.936 1.23047L45.3228 2.55078L47.7603 4.22656L49.5884 5.49609L51.1118 4.78516L53.5493 3.71875C56.1353 2.55 58.8688 2.29218 61.4712 2.95703L64.0103 3.92188L66.4478 5.14062L68.8853 6.41016C69.3654 6.65099 69.5668 6.57786 69.647 6.5625L74.522 5.64844C75.3993 5.48013 76.377 5.12614 77.4673 4.53125L79.9048 3.16016L82.3423 1.83984C85.3632 0.183308 88.8269 -0.309368 92.2954 0.773438L97.1704 2.29688C98.6693 2.76555 100.198 3.14887 101.69 3.51562L106.565 4.73438C107.734 5.02017 108.89 5.16707 110.018 5.19141L114.893 5.29297C116.417 5.32566 117.94 5.32366 119.463 5.29297L124.338 5.19141H134.292C135.534 5.19861 136.792 5.09792 138.049 4.88672L142.924 4.07422C144.71 3.77467 146.517 3.57336 148.307 3.41406L150.745 3.16016L153.182 2.95703C154.547 2.83491 155.918 2.63203 157.295 2.34766L162.17 1.33203C164.219 0.908846 166.29 0.720871 168.366 0.722656H173.241C176.11 0.725805 178.819 1.50348 181.264 2.85547L183.702 4.22656L185.53 5.24219L187.307 4.32812L189.745 3.05859C193.023 1.36125 196.674 1.16507 200.155 2.65234L202.592 3.66797L205.03 4.73438H205.131L207.569 3.87109L210.006 2.95703C212.881 1.90805 215.92 1.76097 218.893 2.60156L221.331 3.3125L223.768 3.97266C225.36 4.42261 226.95 4.86538 228.542 5.29297L233.417 6.61328C234.554 6.91874 235.685 7.09833 236.768 7.12109L241.643 7.22266C242.797 7.24577 243.969 7.14456 245.147 6.91797L247.584 6.41016L250.022 5.95312C251.141 5.73715 252.313 5.36455 253.526 4.83594L255.963 3.82031L258.401 2.75391C261.218 1.52569 264.267 1.13084 267.338 1.83984L269.776 2.39844L272.213 3.00781C273.804 3.375 275.396 3.72953 276.987 4.07422L281.862 5.08984C283.25 5.39069 284.65 5.61246 286.026 5.75L290.901 6.25781C292.138 6.38077 293.373 6.40086 294.608 6.30859L297.045 6.10547L299.483 5.95312C301.385 5.80935 303.318 5.75032 305.221 5.85156L307.659 6.00391L310.096 6.10547C311.034 6.15445 311.994 6.10433 312.991 5.85156L315.428 5.19141L317.866 4.58203C319.601 4.13832 321.356 3.75644 323.096 3.41406L325.534 2.90625L327.971 2.44922C330.287 1.99396 332.642 1.92893 334.979 2.24609L337.417 2.55078L339.854 2.90625C340.883 3.04652 341.921 3.05126 342.952 2.90625L347.827 2.19531C350.297 1.84608 352.77 1.99761 355.19 2.60156L360.065 3.82031C360.34 3.88855 360.603 3.88188 361.03 3.71875L363.467 2.80469L365.905 1.83984C369.155 0.591951 372.55 0.718103 375.706 2.09375L380.581 4.22656C381.325 4.55168 381.928 4.61733 382.409 4.58203L384.846 4.37891L387.284 4.22656C388.65 4.1256 390.02 3.92795 391.397 3.66797L396.272 2.75391C397.749 2.47464 399.257 2.12531 400.741 1.73828L403.178 1.12891L405.616 0.46875C408.558 -0.294709 411.532 -0.112416 414.35 0.925781ZM678.514 67.2461V67.1953L676.483 62.3203C675.042 58.918 675.143 55.3285 676.737 52.0625L677.956 49.625L679.022 47.3398L678.108 45.2578L677.092 42.8203C675.902 39.9859 675.636 36.9348 676.381 33.8828L676.94 31.4453L677.549 29.0078C677.975 27.2648 678.443 25.5151 678.971 23.7773L679.733 21.3398L680.342 19.1562L679.428 17.4805L678.87 16.5156H677.702L675.264 16.4648C672.871 16.4206 670.512 15.9771 668.256 15.1445L663.381 13.3164C662.698 13.0631 662.116 12.9987 661.604 13.0625L659.167 13.418L656.729 13.7227C655.628 13.8668 654.461 14.139 653.276 14.5859L648.401 16.4141C645.51 17.5042 642.469 17.677 639.463 16.8203L637.026 16.1094L634.588 15.4492C634.456 15.4113 634.343 15.3698 634.03 15.5L631.592 16.5156L629.155 17.582C625.912 18.9498 622.442 18.9521 619.202 17.582L616.764 16.5156L614.327 15.5C613.975 15.3522 613.817 15.3577 613.667 15.3984L608.792 16.7188C606.531 17.3295 604.215 17.603 601.885 17.4805L599.448 17.3789L597.01 17.2266C596.05 17.1775 595.077 17.2837 594.065 17.5312L591.627 18.1406L589.19 18.6992C586.746 19.301 584.214 19.4405 581.725 19.0547L579.288 18.6992L576.85 18.293C574.75 17.9659 572.679 17.3944 570.655 16.6172L568.217 15.7031L565.78 14.7383C565.417 14.6009 565.203 14.6222 564.967 14.6875L562.53 15.3477L560.092 16.0586C558.114 16.6055 556.115 16.991 554.1 17.1758L549.225 17.582C547.154 17.7708 545.047 17.7707 542.979 17.5312L540.542 17.2266L538.104 16.9727C537.11 16.8587 536.117 16.8476 535.108 17.0234L532.67 17.4805L530.233 17.8867C527.217 18.4131 524.262 17.9464 521.549 16.7188L519.112 15.6523L516.674 14.5352C515.662 14.078 514.753 13.8433 513.932 13.7734L509.057 13.3672C508.659 13.3345 508.133 13.4003 507.432 13.7227L502.557 15.957C499.542 17.3365 496.251 17.6062 493.01 16.5664L490.573 15.7539L488.135 14.9922C486.833 14.573 485.54 14.2706 484.276 14.0781L481.838 13.7227L479.401 13.3164C479.078 13.2674 478.676 13.312 478.081 13.5703L475.643 14.6367L473.206 15.6523C471.227 16.511 469.214 17.2253 467.163 17.6836L464.725 18.1914L462.288 18.75C459.673 19.3344 457.015 19.2941 454.417 18.6484L449.542 17.4297C448.768 17.2386 448.038 17.2081 447.307 17.3281L442.432 18.1406C440.034 18.5377 437.607 18.5097 435.221 18.0391L432.784 17.5312L430.346 17.0742C429.034 16.8159 427.731 16.6801 426.436 16.6172L423.999 16.4648L421.561 16.3633C419.237 16.2512 416.958 15.7548 414.756 14.9414L409.881 13.1133C409.463 12.9582 409.159 12.986 408.866 13.0625L406.428 13.6719L403.991 14.332C402.232 14.7905 400.475 15.2169 398.709 15.5508L393.834 16.4648C391.971 16.8171 390.072 17.0383 388.198 17.1758L385.76 17.3789L383.323 17.5312C380.561 17.7308 377.9 17.2002 375.401 16.1094L370.526 13.9766L368.139 14.9414L365.702 15.8555C362.883 16.9379 359.89 17.1561 356.917 16.4141L352.042 15.1953C351.213 14.9888 350.433 14.9839 349.655 15.0938L347.217 15.3984L344.78 15.7539C342.566 16.0668 340.342 16.0548 338.127 15.7539L335.69 15.4492L333.252 15.0938C332.349 14.9706 331.435 15.0153 330.51 15.1953L328.073 15.6523L325.635 16.1602C324.136 16.4548 322.619 16.7916 321.116 17.1758L318.678 17.7852L316.241 18.4453C313.997 19.0189 311.688 19.2279 309.385 19.1055L306.948 19.0039L304.51 18.8516C303.173 18.7809 301.837 18.8019 300.499 18.9023L298.061 19.1055L295.624 19.2578C293.619 19.4093 291.582 19.4072 289.581 19.207L284.706 18.6992C282.839 18.512 280.974 18.2373 279.12 17.8359L276.682 17.2773L274.245 16.7695C272.591 16.4112 270.921 16.034 269.268 15.6523L264.393 14.5352C264.217 14.4952 264.007 14.451 263.581 14.6367L258.706 16.7695C256.673 17.6551 254.586 18.341 252.459 18.75L247.584 19.6641C245.521 20.0604 243.427 20.2665 241.338 20.2227L236.463 20.1211C234.304 20.0745 232.171 19.7216 230.065 19.1562L227.627 18.4961L225.19 17.8867C223.538 17.4428 221.866 16.9827 220.213 16.5156L215.338 15.0938C215.068 15.0195 214.844 15.0609 214.475 15.1953L212.038 16.0586L209.6 16.9727C206.391 18.1431 203.055 17.9912 199.952 16.668L197.514 15.6016L195.432 14.7383L193.299 15.8555L190.862 17.125C187.271 18.9842 183.335 18.8553 179.842 16.9219L177.405 15.6016L174.967 14.2305C174.174 13.7929 173.617 13.7242 173.241 13.7227H168.366C167.195 13.7214 166.009 13.8309 164.811 14.0781L159.936 15.0938C158.071 15.479 156.177 15.7392 154.299 15.9062L151.862 16.1094L149.424 16.3633C147.975 16.4927 146.511 16.6777 145.057 16.9219L140.182 17.7344C138.197 18.067 136.19 18.2039 134.19 18.1914H124.643L119.768 18.293C118.052 18.3278 116.304 18.33 114.588 18.293L109.713 18.1914C107.603 18.145 105.486 17.8875 103.417 17.3789L98.5415 16.1602C96.7936 15.7301 95.0522 15.2318 93.311 14.6875L90.8735 13.9258L88.5884 13.2148L86.2017 14.5859L83.7642 15.9062C81.6153 17.0846 79.3249 17.9412 76.9595 18.3945L74.522 18.8516L72.0845 19.3594C68.9213 19.9634 65.861 19.3729 63.0962 17.9883L58.5259 15.7031L56.4946 16.668L54.0571 17.7344C50.1036 19.5212 46.0437 18.8645 42.7837 16.6172L40.3462 14.9414L38.061 13.3672L36.2837 13.9766L33.8462 14.7383C31.9839 15.3346 30.0944 15.8459 28.2095 16.2109L23.3345 17.125C21.0175 17.5721 18.6624 17.6539 16.3267 17.3281L14.1938 16.9727L13.7876 17.4805L13.686 17.5312L14.1431 18.5977L15.2095 21.0352C16.3667 23.6604 16.8218 26.5057 16.4282 29.4141L16.1235 31.8516L15.7681 34.2891C15.7132 34.692 15.7563 35.1705 16.022 35.8125L18.0532 40.6875C18.9881 42.9477 19.5151 45.3147 19.6274 47.7461L19.729 50.1836L19.8813 52.6211C19.9818 54.8123 19.7823 57.0158 19.3228 59.1719L18.8149 61.6094L18.2563 64.0469C18.1076 64.7581 18.1505 65.4646 18.3071 66.1797L18.8149 68.6172L19.3735 71.0547C19.9942 73.909 19.7368 76.7638 18.7642 79.4844L17.0376 84.3594C16.9175 84.6952 16.909 84.9072 16.9868 85.1719L17.7485 87.6094L18.4595 90.0469C19.1367 92.2988 19.483 94.6134 19.4243 96.9531L19.3735 99.3906L19.272 101.828C19.2285 103.516 19.1641 105.218 19.0688 106.906L18.9673 109.344L18.8149 111.781C18.7349 113.198 18.7076 114.631 18.7642 116.047L18.9673 120.922C19.0476 122.941 18.9519 124.957 18.6626 126.965L17.9517 131.84C17.6285 134.075 16.9845 136.28 16.0728 138.391L15.0063 140.828L14.1431 142.809L15.311 144.941L16.5806 147.379C18.0065 150.049 18.6782 153.025 18.2563 156.164L17.647 161.039C17.4127 162.782 17.122 164.53 16.7837 166.27L16.2759 168.707L15.8188 171.145C15.7011 171.749 15.7344 172.36 15.9204 173.023L16.5806 175.461L17.2915 177.898C18.1465 180.932 17.9131 184.043 16.7837 186.938L15.8696 189.375L14.9048 191.66L16.022 194.047L17.1392 196.484C18.5196 199.521 18.7609 202.836 17.6978 206.082L16.936 208.52L16.1235 210.957C15.9353 211.534 15.9229 212.004 16.022 212.48L17.0376 217.355C17.4325 219.257 17.6627 221.176 17.7993 223.094L18.0024 225.531L18.1548 227.969C18.3051 230.083 18.2255 232.216 17.9009 234.316L17.5454 236.754L17.1392 239.191C16.9932 240.152 16.9915 241.125 17.1392 242.086L17.5454 244.523L17.9009 246.961C18.3085 249.636 18.037 252.282 17.1899 254.832L15.5649 259.707C15.2186 260.746 15.0769 261.765 15.0571 262.703L14.9556 267.578C14.9404 268.382 15.0419 269.239 15.3618 270.168L17.0884 275.043C17.7844 277.055 18.2805 279.116 18.561 281.188L18.8657 283.625L19.2212 286.062C19.5793 288.72 19.2595 291.358 18.4087 293.883L16.7837 298.758C16.7094 298.98 16.6924 299.113 16.7837 299.367L17.6978 301.805L18.561 304.242C19.3406 306.418 19.8129 308.659 19.9321 310.945L20.0337 313.383L20.186 315.82C20.3038 318.124 20.0545 320.433 19.4751 322.676L18.8149 325.113L18.2056 327.551C17.6793 329.586 16.9371 331.582 16.022 333.543L14.9048 335.98L13.7368 338.418C13.3813 339.181 13.3076 339.784 13.3306 340.246L13.4829 342.684L13.5845 345.121C13.6436 346.289 13.8373 347.47 14.1431 348.676L15.3618 353.551C15.7378 355.028 16.1924 356.534 16.6821 358.02L18.3071 362.895C19.0404 365.122 19.4093 367.419 19.4243 369.75V372.188L19.4751 374.625C19.4939 377.839 18.3373 380.776 16.6313 383.258L14.9556 385.695L13.7368 387.422L14.4985 388.895L15.6665 391.332C16.7011 393.452 17.457 395.652 17.8501 397.934L18.6626 402.809C18.9659 404.578 19.2465 406.367 19.4243 408.141L19.6782 410.578L19.8813 413.016C20.0621 414.821 20.1583 416.641 20.186 418.449L20.2876 423.324C20.335 426.417 19.3635 429.26 17.7993 431.754L14.7524 436.629L15.311 438.762L15.9712 441.199C16.4255 442.855 16.8636 444.52 17.2915 446.176L17.9517 448.613L18.561 451.051C19.1037 453.151 19.3831 455.301 19.4243 457.449L19.5259 462.324C19.5836 465.627 18.407 468.57 16.6313 471.059L14.9048 473.496L13.1274 475.934C13.0877 475.989 13.0516 476.045 13.0259 476.086L13.4321 478.219L13.9399 480.656C14.2323 482.138 14.5584 483.637 14.9556 485.125L16.2759 490C16.8252 492.057 17.1469 494.142 17.2407 496.246L17.4438 501.121C17.5596 503.759 17.0664 506.364 16.0728 508.789L15.1079 511.227L14.0923 513.664C13.8275 514.319 13.7854 514.809 13.8384 515.238L14.4478 520.113C14.6133 521.437 14.8549 522.78 15.2095 524.125L16.5298 529C17.2869 531.866 17.1502 534.786 16.2251 537.582L14.6001 542.457C14.1992 543.667 13.963 544.864 13.8384 546.012L13.5845 548.449L13.3813 549.973L14.8032 551.242L16.7837 552.969C16.8526 553.03 16.9136 553.056 16.936 553.07H19.272L21.7095 553.02C22.5846 553.012 23.5111 552.853 24.5024 552.512L26.9399 551.699L29.3774 550.836C31.3554 550.155 33.391 549.67 35.4204 549.363L40.2954 548.652C42.2178 548.363 44.1517 548.207 46.0845 548.195L48.522 548.145H50.9595C54.2202 548.126 57.1649 549.286 59.6431 551.039L64.5181 554.492C64.8604 554.733 65.0801 554.815 65.1782 554.848L65.229 554.898L70.104 554.594C72.0159 554.479 73.9311 554.505 75.8423 554.645L78.2798 554.797L80.7173 555C81.2007 555.035 81.8009 554.969 82.5454 554.645L87.4204 552.512C89.4123 551.646 91.4405 550.967 93.5142 550.531L98.3892 549.516L100.979 549.262C103.476 549.256 105.833 549.987 107.936 551.242L110.374 552.715L112.709 554.137L114.893 553.477L117.331 552.766C119.565 552.081 121.863 551.726 124.186 551.75H126.624L129.061 551.801C130.063 551.811 131.093 551.685 132.159 551.395L134.596 550.734L137.034 550.023C139.611 549.322 142.278 549.246 144.905 549.77L147.342 550.227L149.78 550.734C151.254 551.028 152.728 551.256 154.198 551.445L156.635 551.801L159.073 552.105C160.116 552.24 161.175 552.203 162.221 552.055L164.659 551.699L167.096 551.395C168.939 551.133 170.782 550.95 172.631 550.887L175.069 550.785L177.506 550.734C178.67 550.695 179.861 550.518 181.061 550.227L183.499 549.617L185.936 549.059C189.005 548.31 192.085 548.609 194.924 549.82L197.362 550.836L199.799 551.902C200.98 552.406 202.125 552.739 203.202 552.918L208.077 553.73C209.533 553.972 210.992 554.16 212.444 554.289L214.881 554.492L217.268 554.645C217.346 554.618 217.568 554.608 217.877 554.391L222.752 550.938C224.8 549.497 227.195 548.521 229.811 548.398L232.502 548.602L234.94 549.008L237.377 549.465C239.172 549.786 240.974 550.166 242.76 550.633L245.198 551.293L247.635 551.902C248.051 552.011 248.433 552.002 248.905 551.852L253.78 550.328C256.807 549.366 259.911 549.438 262.87 550.531L265.307 551.445L267.745 552.309C268.931 552.747 270.093 553.033 271.198 553.172L276.073 553.781C277.016 553.898 277.956 553.906 278.917 553.73L283.792 552.816C285.984 552.411 288.228 552.319 290.444 552.512L295.319 552.918C296.485 553.018 297.652 553.009 298.823 552.867L303.698 552.258C305.086 552.089 306.511 551.823 307.913 551.496L312.788 550.379C314.813 549.909 316.874 549.63 318.932 549.566L321.37 549.516L323.807 549.414C325.105 549.373 326.406 549.238 327.717 549.008L330.155 548.602L332.592 548.145C335.956 547.553 339.18 548.351 341.936 549.973L346.202 552.461L347.928 551.648L350.366 550.43C354.168 548.568 358.203 548.998 361.588 551.141L364.026 552.715L366.463 554.238C366.541 554.287 366.617 554.314 366.667 554.34L369.002 553.883L371.44 553.375C373.684 552.913 375.969 552.802 378.245 553.02L380.682 553.273L383.12 553.477C384.858 553.643 386.614 553.876 388.35 554.137L390.788 554.492L393.174 554.797C393.228 554.782 393.416 554.76 393.682 554.594L398.557 551.547L401.096 550.328C402.846 549.712 404.702 549.532 406.581 549.82L409.424 550.633L411.862 551.648L414.299 552.715C414.37 552.744 414.421 552.758 414.452 552.766H414.604L419.479 551.141C422.678 550.096 425.951 550.326 428.975 551.648L433.85 553.781C434.032 553.86 434.13 553.881 434.155 553.883C434.169 553.884 434.21 553.859 434.307 553.832L439.182 552.41C441.013 551.882 442.871 551.476 444.717 551.141L449.592 550.227C451.527 549.876 453.482 549.674 455.432 549.617L460.307 549.516C461.864 549.47 463.422 549.4 464.979 549.312L469.854 549.008C471.918 548.891 473.997 549.013 476.049 549.312L480.924 550.023C483.001 550.326 485.056 550.823 487.069 551.547L489.506 552.41L491.944 553.324C493.116 553.745 494.251 554.007 495.346 554.137L497.784 554.391L500.221 554.695C500.975 554.783 501.774 554.727 502.608 554.492L505.045 553.832L507.483 553.121C510.118 552.379 512.824 552.28 515.506 552.867L517.944 553.426L520.381 553.934C521.118 554.095 521.836 554.084 522.565 553.934L525.002 553.477L527.44 552.969C529.443 552.556 531.456 552.297 533.483 552.258L538.358 552.156C539.756 552.13 541.17 552.073 542.573 551.902L547.448 551.293C550.196 550.958 552.918 551.327 555.471 552.309L557.909 553.223L560.346 554.188C560.86 554.382 561.223 554.409 561.565 554.34L566.44 553.324C567.625 553.082 568.838 552.683 570.096 552.156L574.971 550.125C577.239 549.175 579.636 548.614 582.081 548.5L586.956 548.297C588.53 548.223 590.103 548.094 591.678 547.992L596.553 547.688C599.428 547.501 602.203 548.129 604.729 549.363L607.167 550.582L609.604 551.75L609.807 551.852L614.682 550.43C617.205 549.694 619.798 549.496 622.401 549.922L627.276 550.734C628.094 550.869 628.927 550.857 629.764 550.684L634.639 549.668C636.68 549.239 638.765 549.021 640.834 549.008L643.272 548.957H645.709C648.247 548.942 650.725 549.427 653.073 550.379L655.51 551.395L657.948 552.359C658.728 552.674 659.362 552.753 659.928 552.715L664.803 552.41C666.981 552.263 669.15 552.411 671.303 552.816L673.741 553.273L675.62 553.629L676.991 552.562L678.87 551.039L678.92 550.988C678.932 550.957 678.952 550.873 678.971 550.785L679.987 545.91C680.054 545.588 680.076 545.237 679.885 544.742L678.92 542.305L678.006 539.867C677.278 537.974 676.673 536.06 676.229 534.129L675.112 529.254C674.273 525.603 675.218 522.189 677.092 519.352L678.667 516.914L679.834 515.086L679.124 513.613L677.905 511.176C676.394 508.08 676.125 504.626 677.295 501.273L678.108 498.836L678.971 496.398C679.286 495.494 679.404 494.68 679.377 493.91L679.327 491.473L679.225 489.035C679.168 487.413 679.125 485.783 679.073 484.16L678.87 479.285C678.816 477.64 678.806 475.954 678.768 474.309L678.667 469.434C678.626 467.673 678.637 465.913 678.717 464.152L678.92 459.277C678.942 458.811 678.865 458.21 678.514 457.449L677.346 455.012L676.229 452.574C674.499 448.868 674.883 444.958 676.889 441.605L678.311 439.168L679.784 436.73C679.826 436.659 679.815 436.568 679.834 436.527L679.276 434.293L678.717 431.855C678.385 430.516 677.934 429.165 677.397 427.793L675.467 422.918C674.025 419.222 674.605 415.48 676.534 412.305L678.006 409.867L678.87 408.395L677.956 406.973L676.432 404.535C674.373 401.259 673.855 397.346 675.518 393.566L677.651 388.691C678.123 387.621 678.413 386.607 678.514 385.695L679.022 380.82C679.067 380.389 679.054 379.872 678.768 379.195L677.702 376.758L676.686 374.32C675.315 371.07 675.302 367.608 676.686 364.367L678.819 359.492C679.046 358.956 679.021 358.609 678.971 358.324L678.565 355.887L678.108 353.449C677.722 351.281 677.62 349.087 677.803 346.898L678.209 342.023C678.349 340.372 678.505 338.699 678.667 337.047L679.174 332.172C679.189 332.018 679.165 331.69 678.819 331.055L677.499 328.617L676.127 326.18C674.762 323.683 674.005 320.89 674.096 317.953L674.198 315.516L674.249 313.078C674.31 311.142 674.513 309.211 674.858 307.289L675.315 304.852L675.721 302.414C676.127 300.161 676.888 297.967 677.905 295.863L679.073 293.426L679.733 292.055L678.463 290.328L676.686 287.891C674.82 285.339 673.621 282.225 673.842 278.75L674.147 273.875C674.241 272.385 674.289 270.895 674.299 269.406V266.969L674.35 264.531C674.362 262.761 674.418 260.968 674.553 259.199L674.756 256.762L674.909 254.324C675.057 252.4 675.361 250.442 675.772 248.535L676.28 246.098L676.838 243.66C677.185 242.053 677.515 240.443 677.854 238.836L678.87 233.961C679.005 233.32 678.99 232.701 678.819 232.031L677.6 227.156C677.127 225.301 676.741 223.441 676.483 221.57L676.178 219.133L675.823 216.695C675.542 214.658 675.453 212.598 675.569 210.551L675.874 205.676C675.944 204.415 675.911 203.133 675.772 201.867L675.467 199.43L675.213 196.992C674.865 193.781 675.701 190.79 677.245 188.156L678.667 185.719L679.834 183.688L679.022 181.859L677.956 179.422C676.843 176.872 676.357 174.117 676.635 171.297L677.143 166.422C677.253 165.32 677.2 164.181 677.042 163.07L676.737 160.633L676.381 158.195C676.053 155.872 676.104 153.547 676.534 151.238L677.448 146.363C677.593 145.584 677.563 144.819 677.397 144.027L676.381 139.152C675.915 136.941 675.755 134.695 675.924 132.449L676.077 130.012L676.28 127.574C676.466 125.11 677.119 122.719 678.159 120.465L679.327 118.027L680.241 115.945L679.225 113.863L678.057 111.426C676.848 108.969 676.16 106.293 676.229 103.504L676.331 98.6289C676.368 97.1097 676.365 95.5778 676.331 94.0586L676.229 89.1836C676.195 87.6953 676.15 86.2044 676.026 84.7148L675.62 79.8398C675.4 77.1919 675.807 74.5887 676.737 72.1211L678.514 67.2461Z" fill="#017F01"/>
</svg>
