<svg width="36" height="36" viewBox="0 0 36 36" fill="none" xmlns="http://www.w3.org/2000/svg">
<path d="M16.4404 4.19978C16.5043 3.85744 16.686 3.54825 16.9539 3.32575C17.2218 3.10324 17.5591 2.98145 17.9073 2.98145C18.2556 2.98145 18.5929 3.10324 18.8608 3.32575C19.1287 3.54825 19.3104 3.85744 19.3743 4.19978L20.9427 12.4941C21.0541 13.0838 21.3407 13.6263 21.7651 14.0506C22.1894 14.475 22.7318 14.7615 23.3215 14.8729L31.6159 16.4414C31.9582 16.5053 32.2674 16.687 32.4899 16.9549C32.7124 17.2228 32.8342 17.5601 32.8342 17.9083C32.8342 18.2566 32.7124 18.5939 32.4899 18.8618C32.2674 19.1297 31.9582 19.3113 31.6159 19.3753L23.3215 20.9437C22.7318 21.0551 22.1894 21.3417 21.7651 21.766C21.3407 22.1904 21.0541 22.7328 20.9427 23.3225L19.3743 31.6169C19.3104 31.9592 19.1287 32.2684 18.8608 32.4909C18.5929 32.7134 18.2556 32.8352 17.9073 32.8352C17.5591 32.8352 17.2218 32.7134 16.9539 32.4909C16.686 32.2684 16.5043 31.9592 16.4404 31.6169L14.8719 23.3225C14.7606 22.7328 14.474 22.1904 14.0496 21.766C13.6253 21.3417 13.0829 21.0551 12.4932 20.9437L4.1988 19.3753C3.85646 19.3113 3.54727 19.1297 3.32477 18.8618C3.10227 18.5939 2.98047 18.2566 2.98047 17.9083C2.98047 17.5601 3.10227 17.2228 3.32477 16.9549C3.54727 16.687 3.85646 16.5053 4.1988 16.4414L12.4932 14.8729C13.0829 14.7615 13.6253 14.475 14.0496 14.0506C14.474 13.6263 14.7606 13.0838 14.8719 12.4941L16.4404 4.19978Z" stroke="#E07A5F" stroke-width="2.98466" stroke-linecap="round" stroke-linejoin="round"/>
<path d="M29.8477 2.98438V8.9537" stroke="#E07A5F" stroke-width="2.98466" stroke-linecap="round" stroke-linejoin="round"/>
<path d="M32.8316 5.96973H26.8623" stroke="#E07A5F" stroke-width="2.98466" stroke-linecap="round" stroke-linejoin="round"/>
<path d="M5.97001 32.8316C7.6184 32.8316 8.95467 31.4953 8.95467 29.847C8.95467 28.1986 7.6184 26.8623 5.97001 26.8623C4.32163 26.8623 2.98535 28.1986 2.98535 29.847C2.98535 31.4953 4.32163 32.8316 5.97001 32.8316Z" stroke="#E07A5F" stroke-width="2.98466" stroke-linecap="round" stroke-linejoin="round"/>
</svg>
