<svg width="36" height="36" viewBox="0 0 36 36" fill="none" xmlns="http://www.w3.org/2000/svg">
<path d="M17.1986 3.42543C17.264 3.2933 17.365 3.18208 17.4903 3.10432C17.6155 3.02656 17.76 2.98535 17.9074 2.98535C18.0549 2.98535 18.1994 3.02656 18.3246 3.10432C18.4499 3.18208 18.5509 3.2933 18.6163 3.42543L22.0636 10.408C22.2907 10.8676 22.6259 11.2653 23.0405 11.5668C23.4551 11.8683 23.9366 12.0647 24.4438 12.1391L32.1532 13.2674C32.2993 13.2885 32.4365 13.3501 32.5494 13.4452C32.6623 13.5403 32.7463 13.6651 32.792 13.8055C32.8376 13.9459 32.8431 14.0962 32.8077 14.2395C32.7724 14.3828 32.6977 14.5134 32.592 14.6164L27.0166 20.0455C26.6489 20.4038 26.3738 20.8461 26.215 21.3343C26.0562 21.8225 26.0183 22.342 26.1048 22.8481L27.421 30.5187C27.4468 30.6647 27.4311 30.815 27.3755 30.9525C27.32 31.09 27.2269 31.2091 27.107 31.2962C26.987 31.3833 26.845 31.435 26.6971 31.4453C26.5492 31.4556 26.4013 31.4241 26.2705 31.3544L19.3789 27.731C18.9248 27.4926 18.4196 27.368 17.9067 27.368C17.3938 27.368 16.8886 27.4926 16.4345 27.731L9.54442 31.3544C9.41358 31.4237 9.26594 31.4548 9.11828 31.4443C8.97062 31.4338 8.82887 31.3821 8.70915 31.295C8.58943 31.208 8.49655 31.089 8.44107 30.9518C8.38559 30.8146 8.36974 30.6645 8.39532 30.5187L9.71006 22.8496C9.79691 22.3433 9.75929 21.8235 9.60043 21.335C9.44158 20.8464 9.16627 20.4039 8.79825 20.0455L3.2229 14.6179C3.11634 14.515 3.04083 14.3842 3.00497 14.2405C2.96911 14.0967 2.97434 13.9458 3.02006 13.8049C3.06579 13.664 3.15018 13.5387 3.26361 13.4434C3.37704 13.3481 3.51496 13.2866 3.66165 13.2659L11.3695 12.1391C11.8773 12.0653 12.3595 11.8691 12.7747 11.5676C13.1898 11.266 13.5255 10.8681 13.7528 10.408L17.1986 3.42543Z" fill="#FFD700" stroke="#FFD700" stroke-width="2.98466" stroke-linecap="round" stroke-linejoin="round"/>
</svg>
